<?xml version="1.0" encoding="UTF-8"?>
<!DOCTYPE svg PUBLIC "-//W3C//DTD SVG 1.1//EN" "http://www.w3.org/Graphics/SVG/1.1/DTD/svg11.dtd">
<svg xmlns="http://www.w3.org/2000/svg" version="1.1" width="1195px" height="1350px" style="shape-rendering:geometricPrecision; text-rendering:geometricPrecision; image-rendering:optimizeQuality; fill-rule:evenodd; clip-rule:evenodd" xmlns:xlink="http://www.w3.org/1999/xlink">
<g><path style="opacity:0.958" fill="#000000" d="M 561.5,437.5 C 596.39,433.552 627.723,442.052 655.5,463C 689.651,494.105 699.485,531.605 685,575.5C 668.03,607.666 641.364,625.666 605,629.5C 605.372,648.146 605.538,666.813 605.5,685.5C 665.524,679.383 701.691,646.716 714,587.5C 715.959,576.58 717.125,565.58 717.5,554.5C 724.5,554.5 731.5,554.5 738.5,554.5C 739.27,599.381 724.603,638.214 694.5,671C 669.26,693.61 639.593,705.776 605.5,707.5C 604.679,724.82 604.346,742.153 604.5,759.5C 597.138,759.635 589.804,759.302 582.5,758.5C 583.3,741.179 583.633,723.846 583.5,706.5C 533.059,701.385 495.225,677.052 470,633.5C 452.294,593.952 450.294,553.619 464,512.5C 482.312,469.09 514.812,444.09 561.5,437.5 Z M 566.5,458.5 C 593.863,456.005 618.53,462.838 640.5,479C 665.018,500.22 674.184,526.72 668,558.5C 656.778,588.207 635.278,604.54 603.5,607.5C 598.352,577.184 581.018,557.684 551.5,549C 529.116,545.405 516.449,554.739 513.5,577C 513.954,585.696 516.788,593.53 522,600.5C 538.248,618.98 558.748,628.313 583.5,628.5C 583.833,647.512 583.5,666.512 582.5,685.5C 509.761,671.589 474.594,627.589 477,553.5C 482.806,498.868 512.64,467.201 566.5,458.5 Z M 540.5,569.5 C 561.8,572.961 575.467,585.127 581.5,606C 563.081,606.206 548.248,598.706 537,583.5C 533.527,577.741 534.694,573.074 540.5,569.5 Z"/></g>
<g><path style="opacity:0.915" fill="#000000" d="M 580.5,829.5 C 591.315,827.996 601.148,830.329 610,836.5C 616.941,848.127 615.774,858.794 606.5,868.5C 615.767,874.796 619.267,883.462 617,894.5C 614.069,904.07 607.569,909.57 597.5,911C 588.674,912.08 580.007,911.413 571.5,909C 559.266,902.654 555.432,892.821 560,879.5C 562.261,875.071 565.428,871.404 569.5,868.5C 561.954,861.787 559.454,853.453 562,843.5C 563.211,840.241 565.044,837.408 567.5,835C 571.686,832.566 576.02,830.733 580.5,829.5 Z M 582.5,839.5 C 589.649,838.38 595.982,840.047 601.5,844.5C 605.961,853.416 603.628,859.583 594.5,863C 590.167,863.667 585.833,863.667 581.5,863C 573.223,860.278 570.389,854.778 573,846.5C 573.465,845.069 574.299,843.903 575.5,843C 577.925,841.787 580.259,840.621 582.5,839.5 Z M 582.5,873.5 C 591.22,872.217 598.72,874.55 605,880.5C 608.601,895.081 602.768,902.081 587.5,901.5C 573.773,902.277 567.94,895.944 570,882.5C 572.702,877.275 576.869,874.275 582.5,873.5 Z"/></g>
<g><path style="opacity:0.921" fill="#000000" d="M 665.5,829.5 C 685.653,826.853 698.486,835.187 704,854.5C 706.686,868.46 705.686,882.127 701,895.5C 692.65,909.185 680.483,914.352 664.5,911C 650.059,906.547 642.226,896.714 641,881.5C 638.85,867.482 640.85,854.148 647,841.5C 651.727,835.067 657.893,831.067 665.5,829.5 Z M 666.5,840.5 C 678.925,838.291 687.425,842.958 692,854.5C 696.129,868.925 694.462,882.592 687,895.5C 677.08,903.534 667.413,903.201 658,894.5C 650.654,880.67 649.654,866.337 655,851.5C 657.437,846.226 661.271,842.56 666.5,840.5 Z"/></g>
<g><path style="opacity:0.934" fill="#000000" d="M 509.5,830.5 C 513.5,830.5 517.5,830.5 521.5,830.5C 521.5,853.833 521.5,877.167 521.5,900.5C 527.833,900.5 534.167,900.5 540.5,900.5C 540.5,903.833 540.5,907.167 540.5,910.5C 523.5,910.5 506.5,910.5 489.5,910.5C 489.5,907.167 489.5,903.833 489.5,900.5C 496.5,900.5 503.5,900.5 510.5,900.5C 510.833,881.155 510.5,861.822 509.5,842.5C 503.675,845.245 498.008,848.245 492.5,851.5C 490.777,849.222 489.444,846.722 488.5,844C 488.759,842.739 489.426,841.739 490.5,841C 497.217,837.98 503.551,834.48 509.5,830.5 Z"/></g>
</svg>
