<svg width="284" height="476" viewBox="0 0 284 476" fill="none" xmlns="http://www.w3.org/2000/svg">
<path opacity="0.958" fill-rule="evenodd" clip-rule="evenodd" d="M106.471 0.939109C141.361 -3.00889 172.694 5.49111 200.471 26.4391C234.622 57.5441 244.456 95.0441 229.971 138.939C213.001 171.105 186.335 189.105 149.971 192.939C150.343 211.585 150.509 230.252 150.471 248.939C210.495 242.822 246.662 210.155 258.971 150.939C260.93 140.019 262.096 129.019 262.471 117.939C269.471 117.939 276.471 117.939 283.471 117.939C284.241 162.82 269.574 201.653 239.471 234.439C214.231 257.049 184.564 269.215 150.471 270.939C149.65 288.259 149.317 305.592 149.471 322.939C142.109 323.074 134.775 322.741 127.471 321.939C128.271 304.618 128.604 287.285 128.471 269.939C78.0295 264.824 40.1955 240.491 14.9705 196.939C-2.73549 157.391 -4.73549 117.058 8.97051 75.9391C27.2825 32.5291 59.7825 7.52911 106.471 0.939109ZM111.471 21.9391C138.834 19.4441 163.501 26.2771 185.471 42.4391C209.989 63.6591 219.155 90.1591 212.971 121.939C201.749 151.646 180.249 167.979 148.471 170.939C143.323 140.623 125.989 121.123 96.4705 112.439C74.0865 108.844 61.4195 118.178 58.4705 140.439C58.9245 149.135 61.7585 156.969 66.9705 163.939C83.2185 182.419 103.719 191.752 128.471 191.939C128.804 210.951 128.471 229.951 127.471 248.939C54.7315 235.028 19.5645 191.028 21.9705 116.939C27.7765 62.3071 57.6105 30.6401 111.471 21.9391ZM85.4705 132.939C106.771 136.4 120.438 148.566 126.471 169.439C108.052 169.645 93.2185 162.145 81.9705 146.939C78.4975 141.18 79.6645 136.513 85.4705 132.939Z" fill="white"/>
<path opacity="0.915" fill-rule="evenodd" clip-rule="evenodd" d="M125.47 392.939C136.285 391.435 146.118 393.768 154.97 399.939C161.911 411.566 160.744 422.233 151.47 431.939C160.737 438.235 164.237 446.901 161.97 457.939C159.039 467.509 152.539 473.009 142.47 474.439C133.644 475.519 124.977 474.852 116.47 472.439C104.236 466.093 100.402 456.26 104.97 442.939C107.231 438.51 110.398 434.843 114.47 431.939C106.924 425.226 104.424 416.892 106.97 406.939C108.181 403.68 110.014 400.847 112.47 398.439C116.656 396.005 120.99 394.172 125.47 392.939ZM127.47 402.939C134.619 401.819 140.952 403.486 146.47 407.939C150.931 416.855 148.598 423.022 139.47 426.439C135.137 427.106 130.803 427.106 126.47 426.439C118.193 423.717 115.359 418.217 117.97 409.939C118.435 408.508 119.269 407.342 120.47 406.439C122.895 405.226 125.229 404.06 127.47 402.939ZM127.47 436.939C136.19 435.656 143.69 437.989 149.97 443.939C153.571 458.52 147.738 465.52 132.47 464.939C118.743 465.716 112.91 459.383 114.97 445.939C117.672 440.714 121.839 437.714 127.47 436.939Z" fill="white"/>
<path opacity="0.921" fill-rule="evenodd" clip-rule="evenodd" d="M210.47 392.939C230.623 390.292 243.456 398.626 248.97 417.939C251.656 431.899 250.656 445.566 245.97 458.939C237.62 472.624 225.453 477.791 209.47 474.439C195.029 469.986 187.196 460.153 185.97 444.939C183.82 430.921 185.82 417.587 191.97 404.939C196.697 398.506 202.863 394.506 210.47 392.939ZM211.47 403.939C223.895 401.73 232.395 406.397 236.97 417.939C241.099 432.364 239.432 446.031 231.97 458.939C222.05 466.973 212.383 466.64 202.97 457.939C195.624 444.109 194.624 429.776 199.97 414.939C202.407 409.665 206.241 405.999 211.47 403.939Z" fill="white"/>
<path opacity="0.934" fill-rule="evenodd" clip-rule="evenodd" d="M54.4705 393.939C58.4705 393.939 62.4705 393.939 66.4705 393.939C66.4705 417.272 66.4705 440.606 66.4705 463.939C72.8035 463.939 79.1375 463.939 85.4705 463.939C85.4705 467.272 85.4705 470.606 85.4705 473.939C68.4705 473.939 51.4705 473.939 34.4705 473.939C34.4705 470.606 34.4705 467.272 34.4705 463.939C41.4705 463.939 48.4705 463.939 55.4705 463.939C55.8035 444.594 55.4705 425.261 54.4705 405.939C48.6455 408.684 42.9785 411.684 37.4705 414.939C35.7475 412.661 34.4145 410.161 33.4705 407.439C33.7295 406.178 34.3965 405.178 35.4705 404.439C42.1875 401.419 48.5215 397.919 54.4705 393.939Z" fill="white"/>
</svg>
