<?xml version="1.0" standalone="no"?>
<!DOCTYPE svg PUBLIC "-//W3C//DTD SVG 20010904//EN"
 "http://www.w3.org/TR/2001/REC-SVG-20010904/DTD/svg10.dtd">
<svg version="1.0" xmlns="http://www.w3.org/2000/svg"
 width="249.114829pt" height="67.966001pt" viewBox="0 0 249.114829 67.966001"
 preserveAspectRatio="xMidYMid meet">
<metadata>
Created by potrace 1.12, written by Peter Selinger 2001-2015
</metadata>
<g transform="translate(-26.047612,84.966001) scale(0.100000,-0.100000)"
fill="#000000" stroke="none">
<path d="M415 835 c-51 -18 -127 -99 -143 -152 -16 -55 -15 -162 3 -212 33
-94 115 -161 228 -185 25 -6 27 -10 27 -61 0 -48 2 -55 20 -55 18 0 20 7 20
54 l0 54 38 6 c132 24 218 117 240 260 9 55 8 56 -15 56 -17 0 -23 -6 -23 -23
0 -50 -32 -129 -68 -169 -40 -45 -101 -77 -144 -78 -27 0 -28 1 -28 60 0 54 2
60 20 60 55 0 144 73 156 128 3 15 7 33 10 40 2 7 -1 35 -7 61 -13 60 -63 121
-122 150 -51 25 -150 28 -212 6z m203 -49 c74 -38 114 -145 78 -214 -18 -34
-60 -68 -97 -77 -22 -5 -27 -1 -42 34 -20 45 -60 78 -105 87 -37 7 -72 -23
-72 -62 0 -38 60 -92 111 -100 l39 -7 0 -58 c0 -55 -2 -59 -22 -59 -37 1 -102
35 -141 75 -115 118 -76 337 69 391 48 18 138 13 182 -10z m-124 -241 c23 -21
36 -55 21 -55 -20 0 -75 32 -84 48 -21 39 23 44 63 7z"/>
<path d="M1326 612 c-12 -11 -6 -238 6 -250 28 -28 75 1 49 31 -5 7 -12 60
-13 117 -3 88 -6 103 -20 106 -9 1 -19 -1 -22 -4z"/>
<path d="M1494 606 c-3 -7 -3 -66 -2 -132 3 -115 4 -119 26 -122 21 -3 22 0
22 60 0 71 12 93 42 77 15 -8 18 -22 18 -75 0 -62 1 -65 23 -62 20 3 22 9 25
72 4 91 -13 120 -68 114 -39 -3 -39 -3 -42 36 -2 29 -8 40 -21 42 -10 1 -20
-3 -23 -10z"/>
<path d="M1071 514 c-14 -18 -21 -41 -21 -71 0 -83 76 -121 137 -69 24 21 28
32 28 76 0 42 -4 55 -24 71 -36 29 -94 25 -120 -7z m95 -46 c3 -11 3 -31 0
-44 -5 -20 -12 -25 -34 -22 -23 3 -28 8 -30 38 -6 54 48 78 64 28z"/>
<path d="M1771 516 c-23 -24 -23 -24 -2 -31 11 -3 30 -1 41 5 23 12 40 6 40
-16 0 -10 -12 -14 -38 -14 -45 0 -62 -14 -62 -51 0 -52 78 -78 128 -43 19 13
22 24 22 78 0 48 -4 67 -18 79 -28 25 -84 22 -111 -7z m79 -106 c0 -5 -11 -10
-25 -10 -14 0 -25 5 -25 10 0 6 11 10 25 10 14 0 25 -4 25 -10z"/>
<path d="M2041 514 c-14 -18 -21 -41 -21 -70 0 -32 -4 -44 -15 -44 -9 0 -15
-9 -15 -25 0 -25 1 -26 63 -23 56 3 62 5 65 26 3 18 -1 22 -23 22 -25 0 -26 3
-23 43 3 41 4 42 40 42 44 1 56 10 42 33 -7 10 -27 18 -51 20 -34 3 -44 -1
-62 -24z"/>
<path d="M2282 524 c-28 -19 -30 -39 -3 -24 11 5 22 10 25 10 3 0 6 -29 6 -65
0 -63 -1 -65 -26 -65 -16 0 -24 -5 -22 -12 6 -18 108 -19 108 -1 0 7 -9 13
-20 13 -18 0 -20 7 -20 80 0 86 -6 94 -48 64z"/>
<path d="M2435 520 c-15 -17 -16 -24 -6 -47 8 -18 9 -29 1 -37 -20 -20 -12
-62 15 -74 35 -16 56 -15 83 4 22 15 30 58 13 69 -5 3 -7 22 -4 42 5 28 2 39
-12 49 -27 20 -69 17 -90 -6z m73 -9 c8 -5 12 -17 10 -27 -4 -25 -56 -32 -64
-10 -14 36 20 59 54 37z m10 -83 c31 -31 -11 -69 -54 -49 -25 11 -33 46 -11
54 22 10 53 7 65 -5z"/>
<path d="M2630 520 c-15 -15 -20 -33 -20 -74 0 -47 4 -57 26 -75 35 -27 59
-26 89 4 35 34 35 112 2 143 -29 27 -71 28 -97 2z m84 -22 c34 -48 14 -118
-34 -118 -34 0 -50 23 -50 71 0 61 54 91 84 47z"/>
</g>
</svg>
