<svg width="333" height="91" viewBox="0 0 333 91" fill="none" xmlns="http://www.w3.org/2000/svg">
<path d="M20.6032 1.95467C13.8032 4.35467 3.66986 15.1547 1.53652 22.2213C-0.596811 29.5547 -0.463478 43.8213 1.93652 50.488C6.33652 63.0213 17.2699 71.9547 32.3365 75.1547C35.6699 75.9547 35.9365 76.488 35.9365 83.288C35.9365 89.688 36.2032 90.6213 38.6032 90.6213C41.0032 90.6213 41.2699 89.688 41.2699 83.4213V76.2213L46.3365 75.4213C63.9365 72.2213 75.4032 59.8213 78.3365 40.7547C79.5365 33.4213 79.4032 33.288 76.3365 33.288C74.0699 33.288 73.2699 34.088 73.2699 36.3547C73.2699 43.0213 69.0032 53.5547 64.2032 58.888C58.8699 64.888 50.7365 69.1547 45.0032 69.288C41.4032 69.288 41.2699 69.1547 41.2699 61.288C41.2699 54.088 41.5365 53.288 43.9365 53.288C51.2699 53.288 63.1365 43.5547 64.7365 36.2213C65.1365 34.2213 65.6699 31.8213 66.0699 30.888C66.3365 29.9547 65.9365 26.2213 65.1365 22.7547C63.4032 14.7547 56.7365 6.62133 48.8699 2.75467C42.0699 -0.578667 28.8699 -0.978667 20.6032 1.95467ZM47.6699 8.488C57.5365 13.5547 62.8699 27.8213 58.0699 37.0213C55.6699 41.5547 50.0699 46.088 45.1365 47.288C42.2032 47.9547 41.5365 47.4213 39.5365 42.7547C36.8699 36.7547 31.5365 32.3547 25.5365 31.1547C20.6032 30.2213 15.9365 34.2213 15.9365 39.4213C15.9365 44.488 23.9365 51.688 30.7365 52.7547L35.9365 53.688V61.4213C35.9365 68.7547 35.6699 69.288 33.0032 69.288C28.0699 69.1547 19.4032 64.6213 14.2032 59.288C-1.13014 43.5547 4.06985 14.3547 23.4032 7.15467C29.8032 4.75467 41.8032 5.42133 47.6699 8.488ZM31.1365 40.6213C34.2032 43.4213 35.9365 47.9547 33.9365 47.9547C31.2699 47.9547 23.9365 43.688 22.7365 41.5547C19.9365 36.3547 25.8032 35.688 31.1365 40.6213Z" fill="white"/>
<path d="M142.07 31.688C140.47 33.1547 141.27 63.4213 142.87 65.0213C146.603 68.7547 152.87 64.888 149.403 60.888C148.737 59.9547 147.803 52.888 147.67 45.288C147.27 33.5547 146.87 31.5547 145.003 31.1547C143.803 31.0213 142.47 31.288 142.07 31.688Z" fill="white"/>
<path d="M164.47 32.488C164.07 33.4213 164.07 41.288 164.203 50.088C164.603 65.4213 164.737 65.9547 167.67 66.3547C170.47 66.7547 170.603 66.3547 170.603 58.3547C170.603 48.888 172.203 45.9547 176.203 48.088C178.203 49.1547 178.603 51.0213 178.603 58.088C178.603 66.3547 178.737 66.7547 181.67 66.3547C184.337 65.9547 184.603 65.1547 185.003 56.7547C185.537 44.6213 183.27 40.7547 175.937 41.5547C170.737 41.9547 170.737 41.9547 170.337 36.7547C170.07 32.888 169.27 31.4213 167.537 31.1547C166.203 31.0213 164.87 31.5547 164.47 32.488Z" fill="white"/>
<path d="M108.07 44.7547C106.203 47.1547 105.27 50.2213 105.27 54.2213C105.27 65.288 115.403 70.3547 123.537 63.4213C126.737 60.6213 127.27 59.1547 127.27 53.288C127.27 47.688 126.737 45.9547 124.07 43.8213C119.27 39.9547 111.537 40.488 108.07 44.7547ZM120.737 50.888C121.137 52.3547 121.137 55.0213 120.737 56.7547C120.07 59.4213 119.137 60.088 116.203 59.688C113.137 59.288 112.47 58.6213 112.203 54.6213C111.403 47.4213 118.603 44.2213 120.737 50.888Z" fill="white"/>
<path d="M201.403 44.488C198.337 47.688 198.337 47.688 201.137 48.6213C202.603 49.0213 205.137 48.7547 206.603 47.9547C209.67 46.3547 211.937 47.1547 211.937 50.088C211.937 51.4213 210.337 51.9547 206.87 51.9547C200.87 51.9547 198.603 53.8213 198.603 58.7547C198.603 65.688 209.003 69.1547 215.67 64.488C218.203 62.7547 218.603 61.288 218.603 54.088C218.603 47.688 218.07 45.1547 216.203 43.5547C212.47 40.2213 205.003 40.6213 201.403 44.488ZM211.937 58.6213C211.937 59.288 210.47 59.9547 208.603 59.9547C206.737 59.9547 205.27 59.288 205.27 58.6213C205.27 57.8213 206.737 57.288 208.603 57.288C210.47 57.288 211.937 57.8213 211.937 58.6213Z" fill="white"/>
<path d="M237.403 44.7547C235.537 47.1547 234.603 50.2213 234.603 54.088C234.603 58.3547 234.07 59.9547 232.603 59.9547C231.403 59.9547 230.603 61.1547 230.603 63.288C230.603 66.6213 230.737 66.7547 239.003 66.3547C246.47 65.9547 247.27 65.688 247.67 62.888C248.07 60.488 247.537 59.9547 244.603 59.9547C241.27 59.9547 241.137 59.5547 241.537 54.2213C241.937 48.7547 242.07 48.6213 246.87 48.6213C252.737 48.488 254.337 47.288 252.47 44.2213C251.537 42.888 248.87 41.8213 245.67 41.5547C241.137 41.1547 239.803 41.688 237.403 44.7547Z" fill="white"/>
<path d="M269.537 43.4213C265.803 45.9547 265.537 48.6213 269.137 46.6213C270.603 45.9547 272.07 45.288 272.47 45.288C272.87 45.288 273.27 49.1547 273.27 53.9547C273.27 62.3547 273.137 62.6213 269.803 62.6213C267.67 62.6213 266.603 63.288 266.87 64.2213C267.67 66.6213 281.27 66.7547 281.27 64.3547C281.27 63.4213 280.07 62.6213 278.603 62.6213C276.203 62.6213 275.937 61.688 275.937 51.9547C275.937 40.488 275.137 39.4213 269.537 43.4213Z" fill="white"/>
<path d="M289.937 43.9547C287.937 46.2213 287.803 47.1547 289.137 50.2213C290.203 52.6213 290.337 54.088 289.27 55.1547C286.603 57.8213 287.67 63.4213 291.27 65.0213C295.937 67.1547 298.737 67.0213 302.337 64.488C305.27 62.488 306.337 56.7547 304.07 55.288C303.403 54.888 303.137 52.3547 303.537 49.688C304.203 45.9547 303.803 44.488 301.937 43.1547C298.337 40.488 292.737 40.888 289.937 43.9547ZM299.67 45.1547C300.737 45.8213 301.27 47.4213 301.003 48.7547C300.47 52.088 293.537 53.0213 292.47 50.088C290.603 45.288 295.137 42.2213 299.67 45.1547ZM301.003 56.2213C305.137 60.3547 299.537 65.4213 293.803 62.7547C290.47 61.288 289.403 56.6213 292.337 55.5547C295.27 54.2213 299.403 54.6213 301.003 56.2213Z" fill="white"/>
<path d="M315.937 43.9547C313.937 45.9547 313.27 48.3547 313.27 53.8213C313.27 60.088 313.803 61.4213 316.737 63.8213C321.403 67.4213 324.603 67.288 328.603 63.288C333.27 58.7547 333.27 48.3547 328.87 44.2213C325.003 40.6213 319.403 40.488 315.937 43.9547ZM327.137 46.888C331.67 53.288 329.003 62.6213 322.603 62.6213C318.07 62.6213 315.937 59.5547 315.937 53.1547C315.937 45.0213 323.137 41.0213 327.137 46.888Z" fill="white"/>
</svg>
