<svg width="284" height="476" viewBox="0 0 284 476" fill="none" xmlns="http://www.w3.org/2000/svg">
<path opacity="0.958" fill-rule="evenodd" clip-rule="evenodd" d="M106.5 1.50002C141.39 -2.44798 172.723 6.05202 200.5 27C234.651 58.105 244.485 95.605 230 139.5C213.03 171.666 186.364 189.666 150 193.5C150.372 212.146 150.538 230.813 150.5 249.5C210.524 243.383 246.691 210.716 259 151.5C260.959 140.58 262.125 129.58 262.5 118.5C269.5 118.5 276.5 118.5 283.5 118.5C284.27 163.381 269.603 202.214 239.5 235C214.26 257.61 184.593 269.776 150.5 271.5C149.679 288.82 149.346 306.153 149.5 323.5C142.138 323.635 134.804 323.302 127.5 322.5C128.3 305.179 128.633 287.846 128.5 270.5C78.059 265.385 40.2251 241.052 15.0001 197.5C-2.70595 157.952 -4.70595 117.619 9.00005 76.5C27.3121 33.09 59.8121 8.09002 106.5 1.50002ZM111.5 22.5C138.863 20.005 163.53 26.838 185.5 43C210.018 64.22 219.184 90.72 213 122.5C201.778 152.207 180.278 168.54 148.5 171.5C143.352 141.184 126.018 121.684 96.5001 113C74.1161 109.405 61.449 118.739 58.5 141C58.954 149.696 61.7881 157.53 67.0001 164.5C83.2481 182.98 103.748 192.313 128.5 192.5C128.833 211.512 128.5 230.512 127.5 249.5C54.7611 235.589 19.5941 191.589 22.0001 117.5C27.8061 62.868 57.6401 31.201 111.5 22.5ZM85.5001 133.5C106.8 136.961 120.467 149.127 126.5 170C108.081 170.206 93.2481 162.706 82.0001 147.5C78.5271 141.741 79.6941 137.074 85.5001 133.5Z" fill="black"/>
<path opacity="0.915" fill-rule="evenodd" clip-rule="evenodd" d="M125.5 393.5C136.315 391.996 146.148 394.329 155 400.5C161.941 412.127 160.774 422.794 151.5 432.5C160.767 438.796 164.267 447.462 162 458.5C159.069 468.07 152.569 473.57 142.5 475C133.674 476.08 125.007 475.413 116.5 473C104.266 466.654 100.432 456.821 105 443.5C107.261 439.071 110.428 435.404 114.5 432.5C106.954 425.787 104.454 417.453 107 407.5C108.211 404.241 110.044 401.408 112.5 399C116.686 396.566 121.02 394.733 125.5 393.5ZM127.5 403.5C134.649 402.38 140.982 404.047 146.5 408.5C150.961 417.416 148.628 423.583 139.5 427C135.167 427.667 130.833 427.667 126.5 427C118.223 424.278 115.389 418.778 118 410.5C118.465 409.069 119.299 407.903 120.5 407C122.925 405.787 125.259 404.621 127.5 403.5ZM127.5 437.5C136.22 436.217 143.72 438.55 150 444.5C153.601 459.081 147.768 466.081 132.5 465.5C118.773 466.277 112.94 459.944 115 446.5C117.702 441.275 121.869 438.275 127.5 437.5Z" fill="black"/>
<path opacity="0.921" fill-rule="evenodd" clip-rule="evenodd" d="M210.5 393.5C230.653 390.853 243.486 399.187 249 418.5C251.686 432.46 250.686 446.127 246 459.5C237.65 473.185 225.483 478.352 209.5 475C195.059 470.547 187.226 460.714 186 445.5C183.85 431.482 185.85 418.148 192 405.5C196.727 399.067 202.893 395.067 210.5 393.5ZM211.5 404.5C223.925 402.291 232.425 406.958 237 418.5C241.129 432.925 239.462 446.592 232 459.5C222.08 467.534 212.413 467.201 203 458.5C195.654 444.67 194.654 430.337 200 415.5C202.437 410.226 206.271 406.56 211.5 404.5Z" fill="black"/>
<path opacity="0.934" fill-rule="evenodd" clip-rule="evenodd" d="M54.5 394.5C58.5 394.5 62.5 394.5 66.5 394.5C66.5 417.833 66.5 441.167 66.5 464.5C72.833 464.5 79.167 464.5 85.5 464.5C85.5 467.833 85.5 471.167 85.5 474.5C68.5 474.5 51.5 474.5 34.5 474.5C34.5 471.167 34.5 467.833 34.5 464.5C41.5 464.5 48.5 464.5 55.5 464.5C55.833 445.155 55.5 425.822 54.5 406.5C48.675 409.245 43.008 412.245 37.5 415.5C35.777 413.222 34.444 410.722 33.5 408C33.759 406.739 34.426 405.739 35.5 405C42.217 401.98 48.551 398.48 54.5 394.5Z" fill="black"/>
</svg>
